<?xml version="1.0" encoding="UTF-8"?>
<svg width="24px" height="24px" viewBox="0 0 24 24" version="1.1" xmlns="http://www.w3.org/2000/svg" xmlns:xlink="http://www.w3.org/1999/xlink">
    <title>Arrow Icon</title>
    <g id="Arrow-Icon" stroke="none" stroke-width="1" fill="none" fill-rule="evenodd">
        <path d="M23.3497904,10.4050576 L19.0036616,5.94457908 C18.4071341,5.36636891 17.4697337,5.36636891 16.8732062,5.86197763 C16.2766787,6.4401878 16.2766787,7.34880379 16.787988,7.92701397 L19.2593162,10.487659 L1.53392784,10.487659 C0.681745706,10.487659 0,11.1484706 0,11.9744852 C0,12.8004997 0.681745706,13.4613113 1.53392784,13.4613113 L19.3445344,13.4613113 L16.8732062,16.0219564 C16.2766787,16.6001666 16.361897,17.5087826 16.9584244,18.0869927 C17.2140791,18.3347971 17.6401702,18.5 17.981043,18.5 C18.4071341,18.5 18.7480069,18.3347971 19.0888798,18.0869927 L23.4350087,13.6265142 C24.2019726,12.6352968 24.2019726,11.3136736 23.3497904,10.4050576 Z" id="Path" fill="#45525B" fill-rule="nonzero"></path>
    </g>
</svg>