<?xml version="1.0" encoding="UTF-8"?>
<svg width="24px" height="24px" viewBox="0 0 24 24" version="1.1" xmlns="http://www.w3.org/2000/svg" xmlns:xlink="http://www.w3.org/1999/xlink">
    <title>Email Icon</title>
    <g id="Email-Icon" stroke="none" stroke-width="1" fill="none" fill-rule="evenodd">
        <path d="M21.1875,4 L2.8125,4 C1.21875,4 0,5.24550898 0,6.8742515 L0,17.1257485 C0,18.754491 1.21875,20 2.8125,20 L21.1875,20 C22.78125,20 24,18.754491 24,17.1257485 L24,6.8742515 C24,5.34131737 22.78125,4 21.1875,4 Z M20.4375,5.91616766 L12.84375,10.3233533 C12.28125,10.6107784 11.625,10.6107784 11.0625,10.3233533 L3.5625,5.91616766 L20.4375,5.91616766 Z M21.1875,18.1796407 L2.8125,18.1796407 C2.25,18.1796407 1.875,17.7964072 1.875,17.2215569 L1.875,7.16167665 L10.21875,12.0479042 C10.78125,12.3353293 11.4375,12.5269461 12,12.5269461 C12.5625,12.5269461 13.21875,12.3353293 13.78125,12.0479042 L22.125,7.16167665 L22.125,17.2215569 C22.125,17.7005988 21.65625,18.1796407 21.1875,18.1796407 Z" id="Shape" fill="#45525B" fill-rule="nonzero"></path>
    </g>
</svg>