<?xml version="1.0" encoding="utf-8"?>
<!-- Generator: Adobe Illustrator 25.3.1, SVG Export Plug-In . SVG Version: 6.00 Build 0)  -->
<svg version="1.1" id="Layer_1" xmlns="http://www.w3.org/2000/svg" xmlns:xlink="http://www.w3.org/1999/xlink" x="0px" y="0px"
	 viewBox="0 0 24 24" style="enable-background:new 0 0 24 24;" xml:space="preserve">
<g>
	<g>
		<path d="M16.7,22.8H7.3c-3.4,0-6.2-2.8-6.2-6.2V7.3c0-3.4,2.8-6.2,6.2-6.2h9.3c3.4,0,6.2,2.8,6.2,6.2v9.3
			C22.8,20.1,20.1,22.8,16.7,22.8z M7.3,3C5,3,3,5,3,7.3v9.3C3,19,5,21,7.3,21h9.3C19,21,21,19,21,16.7V7.3C21,5,19,3,16.7,3H7.3z"
			/>
	</g>
	<g>
		<path d="M12,17.5c-3.1,0-5.5-2.5-5.5-5.5c0-3.1,2.5-5.5,5.5-5.5s5.5,2.5,5.5,5.5C17.5,15.1,15.1,17.5,12,17.5z M12,8.3
			c-2,0-3.7,1.7-3.7,3.7s1.7,3.7,3.7,3.7s3.7-1.7,3.7-3.7S14,8.3,12,8.3z"/>
	</g>
	<g>
		<path d="M19.1,6.1c0,0.7-0.6,1.3-1.3,1.3c-0.7,0-1.3-0.6-1.3-1.3s0.6-1.3,1.3-1.3C18.5,4.8,19.1,5.4,19.1,6.1z"/>
	</g>
</g>
</svg>
