<?xml version="1.0" encoding="utf-8"?>
<!-- Generator: Adobe Illustrator 25.3.1, SVG Export Plug-In . SVG Version: 6.00 Build 0)  -->
<svg version="1.1" id="Ebene_1" xmlns="http://www.w3.org/2000/svg" xmlns:xlink="http://www.w3.org/1999/xlink" x="0px" y="0px"
	 viewBox="0 0 440 193.2" style="enable-background:new 0 0 440 193.2;" xml:space="preserve">
<style type="text/css">
	.st0{fill:#FFFFFF;}
	.st1{fill:none;}
	.st2{font-family:'Marcellus-Regular';}
	.st3{font-size:47.7773px;}
	.st4{fill:none;stroke:#FFFFFF;stroke-width:0.3;stroke-linecap:round;stroke-miterlimit:10;}
</style>
<g>
	<rect x="0" y="136.1" class="st1" width="440" height="57"/>
	<text transform="matrix(1 0 0 1 21.5068 171.0269)" class="st0 st2 st3">EGYPT YACHTING</text>
	<path class="st0" d="M254.6,91.8l-10.9-10.9c1.5-1.6,2.9-3.4,4-5.3c2.5-4.2,3.9-9,4.2-13.9c3.3,0,6.6-0.1,9.9-0.1
		c-0.3,6.7-2.1,13.3-5.5,19c-0.4,0.7-0.2,1.6,0.5,2c0.2,0.1,0.5,0.2,0.7,0.2c0.5,0,1-0.3,1.2-0.7c3.7-6.2,5.7-13.3,5.9-20.6l0-2.1
		c-0.1-4.5-0.8-8.8-2.2-13c1.4-1,2.3-2.6,2.3-4.4c0-2.9-2.4-5.3-5.3-5.3c-0.5,0-1,0.1-1.5,0.2c-0.2-0.3-0.4-0.6-0.6-0.9
		c-1.4-2.2-3-4.1-4.8-6l5.5-5.5c0.3-0.3,0.3-0.7,0-1c-0.3-0.3-0.7-0.3-1,0l-5.5,5.5c-7.8-7.7-18.3-12.2-29.5-12.4l-1.9,0
		c-3.1,0.1-6.2,0.4-9.2,1.2c-0.8,0.2-1.2,1-1.1,1.7c0.2,0.8,1,1.2,1.7,1.1c2.8-0.7,5.6-1,8.5-1.1c0,1.6-0.1,3.2-0.1,4.8
		c-0.1,5.9-0.2,11.8-0.2,17.6c-1,0.1-2,0.2-2.9,0.4c-0.8,0.2-1.2,1-1,1.7c0.2,0.8,1,1.2,1.7,1c0.7-0.2,1.5-0.3,2.2-0.3
		c0,2.9,0,5.8,0,8.7c-0.9,0.2-1.7,0.6-2.5,1.1l-15-15c3.4-3.2,7.7-5.5,12.4-6.6c0.8-0.2,1.2-1,1.1-1.7c-0.2-0.8-1-1.2-1.7-1.1
		c-5.3,1.3-10,3.8-13.8,7.3l-5-5c0.3-0.5,0.6-1.2,0.6-1.8c0-1.9-1.5-3.4-3.4-3.4c-0.7,0-1.3,0.2-1.8,0.6l-4.4-4.4
		c-0.3-0.3-0.7-0.3-1,0c-0.3,0.3-0.3,0.7,0,1l4.4,4.4c-0.3,0.5-0.5,1.2-0.5,1.8c0,1.9,1.5,3.4,3.4,3.4c0.7,0,1.3-0.2,1.8-0.5l5,5
		c-3.8,3.8-6.5,8.6-7.9,14c-0.6,2.2-0.9,4.5-0.9,6.8c-0.1,0-0.3,0-0.4,0c-3.2,0-6.3,0.1-9.5,0.2c0-3.2,0.4-6.4,1.2-9.5
		c0.2-0.8-0.3-1.5-1-1.7c-0.8-0.2-1.5,0.3-1.7,1c-0.9,3.3-1.3,6.8-1.3,10.3l0,1.7c0.1,5.4,1.3,10.6,3.2,15.4c-0.6,0.7-1,1.5-1,2.5
		c0,2.1,1.7,3.8,3.8,3.8c0.1,0,0.2,0,0.4,0c1.7,2.8,3.7,5.3,6,7.7l-4.9,4.9c-0.3,0.3-0.3,0.7,0,1c0.1,0.1,0.3,0.2,0.5,0.2
		c0.2,0,0.4-0.1,0.5-0.2l4.9-4.9c2.2,2.1,4.6,4,7.3,5.6c0.2,0.1,0.5,0.2,0.7,0.2c0.5,0,1-0.2,1.2-0.7c0.4-0.7,0.2-1.6-0.5-2
		c-2.5-1.5-4.7-3.3-6.8-5.2l7-7c1.5,1.4,3.1,2.7,4.9,3.8c4.5,2.8,9.6,4.3,14.9,4.5l2.4,0c7.7-0.3,14.9-3.5,20.4-8.8l10.6,10.6
		C253.7,92.2,254.2,92,254.6,91.8z M194.2,53.2c1.2-4.9,3.7-9.2,7.1-12.7l15,15c-0.9,1-1.5,2.2-1.7,3.6c-7.1,0-14.1,0.1-21.2,0.2
		C193.4,57.2,193.7,55.2,194.2,53.2z M192.2,88.5c-2.1-2.1-3.9-4.5-5.5-7c0.5-0.6,0.9-1.5,0.9-2.4c0-2.1-1.7-3.8-3.8-3.8
		c-0.1,0-0.1,0-0.2,0c-1.8-4.4-2.8-9.1-3-14.1c3.2,0.1,6.3,0.2,9.5,0.2c0.2,0,0.3,0,0.5,0c0.4,7.6,3.5,14.6,8.6,19.9L192.2,88.5z
		 M193.4,61.6c7.1,0.1,14.2,0.2,21.3,0.2c0.3,1,0.8,1.9,1.4,2.7l-15,15C196.6,74.7,193.8,68.4,193.4,61.6z M206.6,83.8
		c-1.6-1-3.1-2.1-4.4-3.3l15-15c0.8,0.6,1.6,1,2.6,1.2c0,2.9,0,5.8,0,8.7c-2.4-0.2-4.7-0.9-6.7-2.2c-0.7-0.4-1.6-0.2-2,0.5
		c-0.4,0.7-0.2,1.6,0.5,2c2.5,1.5,5.3,2.4,8.2,2.6c0,3.2,0.1,6.4,0.1,9.7C215.3,87.7,210.7,86.3,206.6,83.8z M255.1,37.6
		c0.2,0.3,0.4,0.6,0.5,0.9c-0.9,0.9-1.4,2.2-1.4,3.6c0,2.9,2.4,5.3,5.3,5.3c0.1,0,0.2,0,0.2,0c1.3,3.9,2,7.9,2,12.1
		c-3.3-0.1-6.6-0.1-9.9-0.1c-0.2-5.8-1.9-11.3-5.1-16.1c-0.4-0.7-1.3-0.8-2-0.4c-0.7,0.4-0.8,1.3-0.4,2c2.9,4.3,4.4,9.3,4.6,14.5
		c-7.1-0.1-14.1-0.1-21.2-0.1c-0.2-1.1-0.6-2.1-1.2-3l6.1-6.1c0.5,0.5,0.9,1.1,1.3,1.6c0.3,0.4,0.7,0.6,1.2,0.6
		c0.3,0,0.6-0.1,0.8-0.2c0.7-0.4,0.8-1.3,0.4-2c-0.5-0.7-1-1.4-1.6-2.1L250.7,32C252.3,33.7,253.8,35.6,255.1,37.6z M222.6,66.7
		c1.2-0.3,2.3-0.8,3.2-1.7l6.1,6.1c-2.5,2.4-5.8,3.9-9.3,4.2C222.6,72.5,222.6,69.6,222.6,66.7z M222.6,44.8
		c3.5,0.3,6.7,1.8,9.2,4.1l-6.1,6.1c-0.9-0.8-1.9-1.3-3-1.6C222.6,50.6,222.6,47.7,222.6,44.8z M222.3,24.3c0-1.6-0.1-3.2-0.1-4.8
		c10.4,0.3,20.1,4.4,27.4,11.6l-15.9,15.9c-3-2.9-7-4.7-11.2-5C222.5,36,222.5,30.1,222.3,24.3z M222.5,87.9c0-3.2,0.1-6.5,0.1-9.7
		c4.3-0.3,8.3-2.1,11.3-5.1l6.8,6.8C235.9,84.7,229.4,87.6,222.5,87.9z M241.7,78.9l-6.9-6.9c0.8-0.9,1.5-1.8,2.1-2.8
		c0.4-0.7,0.2-1.6-0.5-2c-0.7-0.4-1.6-0.2-2,0.5c-0.5,0.8-1,1.5-1.6,2.2l-6.1-6.1c0.4-0.6,0.7-1.3,1-2c7.1,0,14.2-0.1,21.3-0.1
		c-0.3,4.4-1.6,8.6-3.8,12.4C244.3,75.9,243.1,77.5,241.7,78.9z"/>
	<polygon class="st0" points="195.9,7.8 196.4,6.9 197.3,6.4 196.4,5.9 195.9,4.9 195.4,5.9 194.5,6.4 195.4,6.9 	"/>
	<polygon class="st0" points="202,25.9 202.9,24.3 204.6,23.4 202.9,22.5 202,20.8 201.1,22.5 199.4,23.4 201.1,24.3 	"/>
	<polygon class="st0" points="185.6,39.9 186.1,39.7 185.6,39.4 185.3,38.9 185,39.4 184.5,39.7 185,39.9 185.3,40.4 	"/>
	<polygon class="st0" points="283.3,47.8 285.1,44.6 288.3,42.9 285.1,41.1 283.3,37.9 281.6,41.1 278.4,42.9 281.6,44.6 	"/>
	<polygon class="st0" points="274.2,84.5 273.7,85.3 272.9,85.8 273.7,86.2 274.2,87.1 274.7,86.2 275.5,85.8 274.7,85.3 	"/>
	<polygon class="st0" points="171.7,77.9 172.3,77.5 171.7,77.2 171.4,76.6 171.1,77.2 170.5,77.5 171.1,77.9 171.4,78.4 	"/>
	<polygon class="st0" points="204.6,105 204.2,105.6 203.6,106 204.2,106.3 204.6,106.9 204.9,106.3 205.5,106 204.9,105.6 	"/>
	<polygon class="st0" points="232.5,102.9 233.7,100.8 235.7,99.7 233.7,98.6 232.5,96.5 231.4,98.6 229.4,99.7 231.4,100.8 	"/>
	<polygon class="st0" points="263.2,13.8 264.1,12.2 265.7,11.3 264.1,10.4 263.2,8.7 262.3,10.4 260.6,11.3 262.3,12.2 	"/>
	<polygon class="st0" points="173.3,94.3 172.3,96.1 170.5,97.1 172.3,98.1 173.3,99.9 174.3,98.1 176.1,97.1 174.3,96.1 	"/>
	<line class="st4" x1="250.6" y1="88.8" x2="257.4" y2="95.6"/>
</g>
</svg>
