<?xml version="1.0" encoding="utf-8"?>
<!-- Generator: Adobe Illustrator 25.3.1, SVG Export Plug-In . SVG Version: 6.00 Build 0)  -->
<svg version="1.1" id="Ebene_1" xmlns="http://www.w3.org/2000/svg" xmlns:xlink="http://www.w3.org/1999/xlink" x="0px" y="0px"
	 viewBox="0 0 440 97.9" style="enable-background:new 0 0 440 97.9;" xml:space="preserve">
<style type="text/css">
	.st0{fill:#FFFFFF;}
</style>
<g>
	<path class="st0" d="M6.6,30c2.2,0,4.2,0,6-0.1c1.8,0,3.4-0.1,4.6-0.1c1.3-0.1,2.2-0.1,2.6-0.2l-1.3,3.5c-0.6-0.2-1.3-0.3-2-0.4
		c-0.7-0.1-1.5-0.2-2.4-0.3c-1-0.1-2.1-0.1-3.3-0.1c-0.4,0-0.9,0-1.5,0c-0.6,0-1.2,0.1-1.7,0.1c-0.6,0-1.3,0.1-1.9,0.1v14.4
		c1.8,0,3.4-0.1,4.9-0.2c1.5-0.1,2.7-0.2,3.7-0.3c1.2-0.1,2.2-0.2,3.2-0.4l-0.8,3.8c-1.2-0.2-2.5-0.3-3.7-0.4
		c-1.1-0.1-2.3-0.2-3.6-0.3C8,49,6.7,49,5.6,49v16.6c2.1,0,4-0.1,5.7-0.3c1.7-0.2,3.3-0.4,4.6-0.6c1.5-0.2,2.9-0.5,4.1-0.9l-0.8,4.3
		c-0.2,0-0.5,0-1-0.1c-0.4,0-0.9,0-1.4-0.1c-0.5,0-1.1,0-1.6,0c-0.6,0-1.1,0-1.6,0c-0.5,0-1,0-1.4,0c-0.4,0-0.7,0-0.9,0H0v-0.1
		c0.1-0.4,0.2-0.8,0.3-1.4c0.1-0.5,0.2-1.2,0.3-2c0.1-0.8,0.1-1.8,0.2-2.9c0-1.1,0.1-2.4,0.1-3.9V40.4c0-1.5,0-2.8-0.1-3.9
		c0-1.1-0.1-2.1-0.2-2.9c-0.1-0.8-0.2-1.5-0.3-2c-0.1-0.5-0.2-1-0.3-1.4V30C2.2,30,4.4,30,6.6,30z"/>
	<path class="st0" d="M59.8,63.4c0,0.2,0,0.4-0.1,0.6c0,0.2-0.1,0.4-0.3,0.5c-0.8,0.6-1.7,1.2-2.6,1.7c-0.9,0.5-1.9,0.9-3,1.3
		c-1.1,0.4-2.2,0.7-3.5,0.9c-1.2,0.2-2.6,0.3-4,0.3c-3.2,0-6.1-0.5-8.8-1.4c-2.6-0.9-4.9-2.3-6.8-4c-1.9-1.7-3.4-3.8-4.4-6.2
		c-1-2.4-1.6-5.1-1.6-8.1c0-1.7,0.2-3.3,0.6-4.9c0.4-1.6,1.1-3.2,1.9-4.6c0.8-1.5,1.8-2.8,3.1-4c1.2-1.2,2.6-2.3,4.2-3.2
		c1.6-0.9,3.3-1.6,5.1-2.1s3.9-0.8,6.1-0.8c0.8,0,1.7,0,2.6,0.1c0.9,0.1,1.7,0.2,2.6,0.3c0.9,0.2,1.7,0.3,2.5,0.5
		c0.8,0.2,1.6,0.4,2.3,0.7l1.8,4.9l-0.2,0.1c-0.7-0.6-1.5-1.2-2.4-1.7s-1.9-1-2.9-1.4c-1-0.4-2.1-0.7-3.2-0.9
		c-1.1-0.2-2.2-0.3-3.4-0.3c-2.2,0-4.3,0.3-6.1,1c-1.8,0.7-3.4,1.7-4.8,3c-1.3,1.3-2.4,2.9-3.1,4.9c-0.7,1.9-1.1,4.1-1.1,6.5
		c0,2.7,0.3,5.2,1.1,7.5c0.7,2.3,1.7,4.3,3.1,6c1.4,1.7,3.1,3,5.2,4c2.1,1,4.5,1.4,7.3,1.4c1.2,0,2.3-0.1,3.3-0.3
		c1-0.2,1.8-0.4,2.5-0.7c0.7-0.3,1.2-0.6,1.5-1c0.3-0.3,0.5-0.7,0.5-0.9v-1c0-1.2,0-2.3-0.1-3.2c0-0.9-0.1-1.7-0.2-2.3
		c-0.1-0.7-0.2-1.2-0.2-1.7c-0.1-0.5-0.2-0.9-0.3-1.3v-0.1h6.3v0.1c-0.1,0.4-0.2,0.8-0.3,1.3c-0.1,0.5-0.2,1.1-0.2,1.8
		c-0.1,0.7-0.1,1.5-0.2,2.4c0,0.9-0.1,2-0.1,3.2V63.4z"/>
	<path class="st0" d="M82.1,49.7v7.8c0,1.5,0,2.8,0.1,3.9c0,1.1,0.1,2.1,0.2,2.9c0.1,0.8,0.2,1.5,0.2,2c0.1,0.5,0.2,1,0.3,1.4v0.1
		h-6.3v-0.1c0.1-0.4,0.2-0.8,0.3-1.4c0.1-0.5,0.2-1.2,0.2-2c0.1-0.8,0.1-1.8,0.2-2.9c0-1.1,0.1-2.4,0.1-3.9v-7.3L65.5,34.2
		c-0.4-0.5-0.8-1-1.2-1.5c-0.4-0.5-0.8-0.9-1.1-1.2c-0.4-0.3-0.7-0.6-1-0.9c-0.3-0.2-0.5-0.4-0.7-0.5V30h8c0,0.4,0.2,1.1,0.5,2
		c0.3,0.9,1,2,1.9,3.3l8.7,11.9L89,34.7c0.3-0.4,0.6-0.9,0.9-1.3c0.3-0.5,0.6-0.9,0.8-1.3c0.2-0.4,0.4-0.8,0.6-1.2
		c0.2-0.4,0.2-0.7,0.2-0.9h5.1v0.1c-0.4,0.3-0.9,0.8-1.6,1.5c-0.7,0.7-1.4,1.5-2.1,2.6L82.1,49.7z"/>
	<path class="st0" d="M100.2,30c0.3,0,0.7,0.1,1.1,0.1c0.3,0,0.7,0.1,1.1,0.1c0.4,0,0.8,0,1.3,0c0.7,0,1.6-0.1,2.8-0.3
		c1.2-0.2,2.7-0.3,4.5-0.3c1.7,0,3.3,0.2,4.7,0.7c1.4,0.5,2.7,1.2,3.7,2.2c1.1,1,1.9,2.1,2.5,3.5c0.6,1.4,0.9,2.9,0.9,4.7
		c0,2.3-0.5,4.4-1.4,6.1c-0.9,1.7-2.2,3.1-3.7,4.1c-1.6,1.1-3.4,1.8-5.4,2.2c-2,0.4-4.2,0.4-6.4,0.1v4.4c0,1.5,0,2.8,0.1,3.9
		c0,1.1,0.1,2.1,0.2,2.9c0.1,0.8,0.1,1.5,0.2,2c0.1,0.5,0.2,1,0.3,1.4v0.1h-6.3v-0.1c0.1-0.4,0.2-0.8,0.3-1.4c0.1-0.5,0.2-1.2,0.3-2
		c0.1-0.8,0.1-1.8,0.2-2.9c0-1.1,0.1-2.4,0.1-3.9V40.4c0-1.5,0-2.8-0.1-3.9c0-1.1-0.1-2.1-0.2-2.9c-0.1-0.8-0.2-1.5-0.3-2
		c-0.1-0.5-0.2-1-0.3-1.4V30z M105.8,51.1c1.7,0.3,3.3,0.3,4.7,0.1c1.4-0.3,2.7-0.8,3.7-1.6c1-0.8,1.8-2,2.4-3.4
		c0.6-1.4,0.9-3.2,0.9-5.2c0-1.4-0.2-2.7-0.4-3.9c-0.3-1.2-0.7-2.2-1.3-3c-0.6-0.8-1.3-1.5-2.2-1.9c-0.9-0.4-1.9-0.7-3.1-0.7
		c-0.8,0-1.4,0-2,0.1c-0.6,0.1-1,0.1-1.4,0.2c-0.5,0.1-0.8,0.2-1.1,0.3V51.1z"/>
	<path class="st0" d="M137.9,32.3c-2.1,0-4,0.1-5.6,0.3c-1.7,0.2-3.1,0.4-4.3,0.6c-1.4,0.3-2.7,0.6-3.8,0.9l0.8-4.3
		c0.2,0,0.5,0,1,0.1c0.4,0,0.9,0,1.4,0.1c0.5,0,1.1,0,1.6,0c0.6,0,1.1,0,1.6,0c0.5,0,1,0,1.4,0c0.4,0,0.7,0,0.9,0h15.1
		c0.2,0,0.5,0,0.9,0c0.4,0,0.9,0,1.4,0c0.5,0,1.1,0,1.6,0c0.6,0,1.1,0,1.6,0c0.5,0,1,0,1.4-0.1s0.7,0,1-0.1l0.8,4.3
		c-1.1-0.3-2.4-0.6-3.8-0.9c-1.2-0.2-2.7-0.4-4.3-0.6c-1.7-0.2-3.5-0.3-5.6-0.3v25.2c0,1.5,0,2.8,0.1,3.9c0,1.1,0.1,2.1,0.2,2.9
		c0.1,0.8,0.1,1.5,0.2,2c0.1,0.5,0.2,1,0.3,1.4v0.1h-6.3v-0.1c0.1-0.4,0.2-0.8,0.3-1.4c0.1-0.5,0.2-1.2,0.2-2
		c0.1-0.8,0.1-1.8,0.2-2.9c0-1.1,0.1-2.4,0.1-3.9V32.3z"/>
	<path class="st0" d="M191.8,49.7v7.8c0,1.5,0,2.8,0.1,3.9c0,1.1,0.1,2.1,0.2,2.9c0.1,0.8,0.2,1.5,0.2,2c0.1,0.5,0.2,1,0.3,1.4v0.1
		h-6.3v-0.1c0.1-0.4,0.2-0.8,0.3-1.4c0.1-0.5,0.2-1.2,0.2-2c0.1-0.8,0.1-1.8,0.2-2.9c0-1.1,0.1-2.4,0.1-3.9v-7.3l-11.8-16.1
		c-0.4-0.5-0.8-1-1.2-1.5c-0.4-0.5-0.8-0.9-1.1-1.2c-0.4-0.3-0.7-0.6-1-0.9c-0.3-0.2-0.5-0.4-0.7-0.5V30h8c0,0.4,0.2,1.1,0.5,2
		c0.3,0.9,1,2,1.9,3.3l8.7,11.9l8.5-12.4c0.3-0.4,0.6-0.9,0.9-1.3c0.3-0.5,0.6-0.9,0.8-1.3c0.2-0.4,0.4-0.8,0.6-1.2
		c0.2-0.4,0.2-0.7,0.2-0.9h5.1v0.1c-0.4,0.3-0.9,0.8-1.6,1.5c-0.7,0.7-1.4,1.5-2.1,2.6L191.8,49.7z"/>
	<path class="st0" d="M233,67.9v-0.1c0-0.1,0.1-0.2,0.1-0.4c0-0.2,0-0.3,0-0.5c0-0.5-0.1-1.1-0.2-1.8c-0.1-0.7-0.4-1.5-0.9-2.5
		l-3.2-7.2c-1,0-2.3-0.1-3.9-0.1s-3.4,0-5.3,0c-1.4,0-2.7,0-4,0s-2.5,0-3.5,0.1l-3,7c-0.3,0.7-0.5,1.4-0.8,2.1
		c-0.3,0.8-0.4,1.6-0.4,2.3c0,0.2,0,0.4,0.1,0.6c0,0.1,0.1,0.2,0.1,0.3v0.1h-5.4v-0.1c0.3-0.3,0.7-0.9,1.2-1.8
		c0.5-0.9,1-1.9,1.6-3.2l15.1-33.6h2.1l14.3,32.3c0.3,0.8,0.7,1.5,1,2.2c0.4,0.7,0.7,1.4,1,1.9c0.3,0.6,0.6,1,0.8,1.4
		c0.2,0.4,0.4,0.6,0.5,0.7v0.1H233z M215.8,53.1c1,0,2.1,0,3.1,0c1.1,0,2.1,0,3.2,0c1,0,2,0,3,0c1,0,1.8,0,2.6,0l-7.4-16.8L213,53.1
		H215.8z"/>
	<path class="st0" d="M274.1,35.8l-0.2,0.1c-1.4-1.3-3-2.3-5-3s-4-1.1-6.3-1.1c-2.2,0-4.3,0.3-6.1,1c-1.8,0.7-3.4,1.7-4.8,3
		c-1.3,1.3-2.4,2.9-3.1,4.9c-0.7,1.9-1.1,4.1-1.1,6.5c0,2.7,0.3,5.2,1.1,7.5c0.7,2.3,1.7,4.4,3.1,6.1c1.4,1.7,3.1,3.1,5.2,4
		c2.1,1,4.5,1.5,7.3,1.5c1,0,2-0.1,3-0.3c1-0.2,2-0.5,2.9-0.9c0.9-0.4,1.8-0.9,2.6-1.5c0.8-0.6,1.6-1.3,2.2-2l0.3,0.2l-2.1,5.4
		c-1.3,0.5-2.8,0.9-4.4,1.2c-1.6,0.3-3.2,0.4-4.8,0.4c-3.3,0-6.2-0.5-8.9-1.4c-2.7-0.9-5-2.3-7-4c-1.9-1.7-3.5-3.8-4.5-6.2
		c-1.1-2.4-1.6-5.1-1.6-8.1c0-1.7,0.2-3.3,0.6-4.9c0.4-1.6,1.1-3.2,1.9-4.6c0.8-1.5,1.8-2.8,3.1-4s2.6-2.3,4.2-3.2
		c1.6-0.9,3.3-1.6,5.1-2.1c1.9-0.5,3.9-0.8,6.1-0.8c3.4,0,6.5,0.5,9.5,1.6L274.1,35.8z"/>
	<path class="st0" d="M306.2,49.8c-0.7,0-1.6,0-2.6,0c-1.1,0-2.2,0-3.4,0c-1.2,0-2.5,0-3.9,0c-1.3,0-2.7,0-3.9,0c-1.3,0-2.5,0-3.7,0
		s-2.2,0-3,0.1v7.8c0,1.5,0,2.8,0.1,3.9c0,1.1,0.1,2.1,0.2,2.9c0.1,0.8,0.1,1.5,0.2,2c0.1,0.5,0.2,1,0.3,1.4v0.1H280v-0.1
		c0.1-0.4,0.2-0.8,0.3-1.4c0.1-0.5,0.2-1.2,0.3-2c0.1-0.8,0.1-1.8,0.2-2.9c0-1.1,0.1-2.4,0.1-3.9V40.4c0-1.5,0-2.8-0.1-3.9
		c0-1.1-0.1-2.1-0.2-2.9c-0.1-0.8-0.2-1.5-0.3-2c-0.1-0.5-0.2-1-0.3-1.4V30h6.3v0.1c-0.1,0.4-0.2,0.8-0.3,1.4
		c-0.1,0.5-0.2,1.2-0.2,2c-0.1,0.8-0.1,1.8-0.2,2.9c0,1.1-0.1,2.4-0.1,3.9v6.8c0.9,0,2,0.1,3.1,0.1c1.2,0,2.4,0,3.6,0
		c1.3,0,2.6,0,3.9,0c1.3,0,2.6,0,3.8-0.1c1.2,0,2.4-0.1,3.4-0.1c1.1,0,2-0.1,2.8-0.1v-6.5c0-1.5,0-2.8-0.1-3.9
		c0-1.1-0.1-2.1-0.2-2.9c-0.1-0.8-0.1-1.5-0.2-2c-0.1-0.5-0.2-1-0.3-1.4V30h6.3v0.1c-0.1,0.4-0.2,0.8-0.3,1.4
		c-0.1,0.5-0.2,1.2-0.2,2c-0.1,0.8-0.1,1.8-0.2,2.9c0,1.1-0.1,2.4-0.1,3.9v17.2c0,1.5,0,2.8,0.1,3.9c0,1.1,0.1,2.1,0.2,2.9
		c0.1,0.8,0.2,1.5,0.2,2c0.1,0.5,0.2,1,0.3,1.4v0.1h-6.3v-0.1c0.1-0.4,0.2-0.8,0.3-1.4c0.1-0.5,0.2-1.2,0.2-2
		c0.1-0.8,0.1-1.8,0.2-2.9c0-1.1,0.1-2.4,0.1-3.9V49.8z"/>
	<path class="st0" d="M329.3,32.3c-2.1,0-4,0.1-5.6,0.3c-1.7,0.2-3.1,0.4-4.3,0.6c-1.4,0.3-2.7,0.6-3.8,0.9l0.8-4.3
		c0.2,0,0.5,0,1,0.1c0.4,0,0.9,0,1.4,0.1c0.5,0,1.1,0,1.6,0c0.6,0,1.1,0,1.6,0c0.5,0,1,0,1.4,0c0.4,0,0.7,0,0.9,0h15.1
		c0.2,0,0.5,0,0.9,0c0.4,0,0.9,0,1.4,0c0.5,0,1.1,0,1.6,0c0.6,0,1.1,0,1.6,0c0.5,0,1,0,1.4-0.1c0.4,0,0.7,0,1-0.1l0.8,4.3
		c-1.1-0.3-2.4-0.6-3.8-0.9c-1.2-0.2-2.7-0.4-4.3-0.6c-1.7-0.2-3.5-0.3-5.6-0.3v25.2c0,1.5,0,2.8,0.1,3.9c0,1.1,0.1,2.1,0.2,2.9
		c0.1,0.8,0.1,1.5,0.2,2c0.1,0.5,0.2,1,0.3,1.4v0.1h-6.3v-0.1c0.1-0.4,0.2-0.8,0.3-1.4c0.1-0.5,0.2-1.2,0.2-2
		c0.1-0.8,0.1-1.8,0.2-2.9c0-1.1,0.1-2.4,0.1-3.9V32.3z"/>
	<path class="st0" d="M351.9,67.8c0.1-0.4,0.2-0.8,0.3-1.4c0.1-0.5,0.2-1.2,0.2-2c0.1-0.8,0.1-1.8,0.2-2.9c0-1.1,0.1-2.4,0.1-3.9
		V40.4c0-1.5,0-2.8-0.1-3.9c0-1.1-0.1-2.1-0.2-2.9c-0.1-0.8-0.2-1.5-0.2-2c-0.1-0.5-0.2-1-0.3-1.4V30h6.3v0.1
		c-0.1,0.4-0.2,0.8-0.3,1.4c-0.1,0.5-0.2,1.2-0.2,2c-0.1,0.8-0.1,1.8-0.2,2.9c0,1.1-0.1,2.4-0.1,3.9v17.2c0,1.5,0,2.8,0.1,3.9
		c0,1.1,0.1,2.1,0.2,2.9c0.1,0.8,0.1,1.5,0.2,2c0.1,0.5,0.2,1,0.3,1.4v0.1h-6.3V67.8z"/>
	<path class="st0" d="M367.4,30l27.2,28.9V40.4c0-1.5,0-2.8-0.1-3.9c0-1.1-0.1-2.1-0.2-2.9c-0.1-0.8-0.2-1.5-0.3-2
		c-0.1-0.5-0.2-1-0.3-1.4V30h4.7v0.1c-0.1,0.4-0.2,0.8-0.3,1.4c-0.1,0.5-0.2,1.2-0.2,2c-0.1,0.8-0.1,1.8-0.2,2.9
		c0,1.1-0.1,2.4-0.1,3.9v28h-0.9l-27.2-28.9v18.1c0,1.5,0,2.8,0.1,3.9c0,1.1,0.1,2.1,0.2,2.9c0.1,0.8,0.1,1.5,0.2,2
		c0.1,0.5,0.2,1,0.3,1.4v0.1h-4.7v-0.1c0.1-0.4,0.2-0.8,0.3-1.4c0.1-0.5,0.2-1.2,0.3-2c0.1-0.8,0.1-1.8,0.2-2.9
		c0-1.1,0.1-2.4,0.1-3.9V40.4c0-1.5,0-2.8-0.1-3.9c0-1.1-0.1-2.1-0.2-2.9c-0.1-0.8-0.2-1.5-0.3-2c-0.1-0.5-0.2-1-0.3-1.4V30H367.4z"
		/>
	<path class="st0" d="M439.2,63.4c0,0.2,0,0.4-0.1,0.6c0,0.2-0.1,0.4-0.3,0.5c-0.8,0.6-1.7,1.2-2.6,1.7c-0.9,0.5-1.9,0.9-3,1.3
		c-1.1,0.4-2.2,0.7-3.5,0.9c-1.2,0.2-2.6,0.3-4,0.3c-3.2,0-6.1-0.5-8.8-1.4c-2.6-0.9-4.9-2.3-6.8-4c-1.9-1.7-3.4-3.8-4.4-6.2
		c-1-2.4-1.6-5.1-1.6-8.1c0-1.7,0.2-3.3,0.6-4.9c0.4-1.6,1.1-3.2,1.9-4.6c0.8-1.5,1.8-2.8,3.1-4c1.2-1.2,2.6-2.3,4.2-3.2
		c1.6-0.9,3.3-1.6,5.1-2.1c1.9-0.5,3.9-0.8,6.1-0.8c0.8,0,1.7,0,2.6,0.1c0.9,0.1,1.7,0.2,2.6,0.3c0.9,0.2,1.7,0.3,2.5,0.5
		c0.8,0.2,1.6,0.4,2.3,0.7l1.8,4.9l-0.2,0.1c-0.7-0.6-1.5-1.2-2.4-1.7c-0.9-0.5-1.9-1-2.9-1.4c-1-0.4-2.1-0.7-3.2-0.9
		c-1.1-0.2-2.2-0.3-3.4-0.3c-2.2,0-4.3,0.3-6.1,1c-1.8,0.7-3.4,1.7-4.8,3c-1.3,1.3-2.4,2.9-3.1,4.9c-0.7,1.9-1.1,4.1-1.1,6.5
		c0,2.7,0.3,5.2,1.1,7.5c0.7,2.3,1.7,4.3,3.1,6c1.4,1.7,3.1,3,5.2,4c2.1,1,4.5,1.4,7.3,1.4c1.2,0,2.3-0.1,3.3-0.3
		c1-0.2,1.8-0.4,2.5-0.7c0.7-0.3,1.2-0.6,1.5-1c0.3-0.3,0.5-0.7,0.5-0.9v-1c0-1.2,0-2.3-0.1-3.2c0-0.9-0.1-1.7-0.2-2.3
		c-0.1-0.7-0.2-1.2-0.2-1.7c-0.1-0.5-0.2-0.9-0.3-1.3v-0.1h6.3v0.1c-0.1,0.4-0.2,0.8-0.3,1.3c-0.1,0.5-0.2,1.1-0.2,1.8
		c-0.1,0.7-0.1,1.5-0.2,2.4c0,0.9-0.1,2-0.1,3.2V63.4z"/>
</g>
</svg>
