<?xml version="1.0" encoding="utf-8"?>
<!-- Generator: Adobe Illustrator 25.2.0, SVG Export Plug-In . SVG Version: 6.00 Build 0)  -->
<svg version="1.1" id="Ebene_1" xmlns="http://www.w3.org/2000/svg" xmlns:xlink="http://www.w3.org/1999/xlink" x="0px" y="0px"
	 viewBox="0 0 440 97.9" style="enable-background:new 0 0 440 97.9;" xml:space="preserve">
<style type="text/css">
	.st0{fill:#FFFFFF;}
</style>
<desc>A line styled icon from Orion Icon Library.</desc>
<g>
	<path class="st0" d="M117.5,94.2v1.6H93.9v-1.6c5.1-0.4,7.3-3.1,6.3-8.5L86.8,14.4L58.9,95.8h-3.8L25.2,13.7l-11,72
		c-0.9,5.8,0.7,8.1,5.8,8.5v1.6H3.1v-1.6c5-0.4,7.4-2.7,8.2-8.5l11.5-74.1c0.8-5.5-0.1-8-5.3-8.4V1.5h11.9l30.6,83l28.4-83h10.8v1.8
		c-5,0.4-6.2,3.1-5.1,8.4l15,74.1C110.2,91.5,112.4,93.8,117.5,94.2z"/>
	<path class="st0" d="M232.7,48.6c0,28.4-22.2,48.5-49.6,48.5c-27.2,0-49.5-20.1-49.5-48.5c0-28.3,22.2-48.5,49.5-48.5
		C210.5,0.1,232.7,20.3,232.7,48.6z M223.3,48.6c0-29.1-19.3-46.1-40.2-46.1s-40.2,17-40.2,46.1c0,29.2,19.3,46.2,40.2,46.2
		S223.3,77.9,223.3,48.6z"/>
	<path class="st0" d="M352.6,48.6c0,28.4-22.2,48.5-49.6,48.5c-27.2,0-49.5-20.1-49.5-48.5c0-28.3,22.2-48.5,49.5-48.5
		C330.4,0.1,352.6,20.3,352.6,48.6z M343.2,48.6c0-29.1-19.3-46.1-40.2-46.1c-20.9,0-40.2,17-40.2,46.1c0,29.2,19.3,46.2,40.2,46.2
		C323.9,94.9,343.2,77.9,343.2,48.6z"/>
	<path class="st0" d="M436.6,75.2c-2.8,15.5-15.4,22.2-31.4,22c-10.2-0.3-24.7-3.5-33-9.4V69.9h1.6c4,16.8,18.6,24.5,31.4,24.8
		c10.9,0.3,20.5-4.2,22.8-15.1c5.7-28.3-57.1-25.2-50-61C380.4,6.3,390.3,0,404.2,0c9.8,0,18.9,3.5,27.5,10.1V27h-1.5
		c-4.2-16.8-13.2-24.5-26-24.5c-9.3,0-18.1,4.9-19.1,15C382.1,43.9,442.1,45.1,436.6,75.2z"/>
</g>
</svg>
