<?xml version="1.0" encoding="UTF-8"?>
<svg width="24px" height="24px" viewBox="0 0 24 24" version="1.1" xmlns="http://www.w3.org/2000/svg" xmlns:xlink="http://www.w3.org/1999/xlink">
    <title>Phone Icon</title>
    <g id="Phone-Icon" stroke="none" stroke-width="1" fill="none" fill-rule="evenodd">
        <path d="M18.655649,23.5 C15.4614889,23.5 10.8650147,21.180806 6.65807219,17.1320436 C0.931956011,11.6288713 -1.52209378,5.49676515 0.970909183,2.82379578 C1.0877687,2.70587066 1.20462821,2.62725392 1.3604409,2.54863717 L4.63250729,0.70114364 C5.37261754,0.30805991 6.30749365,0.504601775 6.77493171,1.17284412 L9.15107516,4.59267257 C9.38479419,4.94644793 9.5016537,5.37884003 9.42374736,5.77192376 C9.34584102,6.20431586 9.11212199,6.55809122 8.76154345,6.79394146 L7.32027611,7.73734241 C7.24236976,7.77665079 7.24236976,7.81595916 7.24236976,7.85526753 C7.24236976,7.89457591 7.24236976,7.93388428 7.28132294,7.97319265 C8.33305856,9.54552757 11.3324528,13.5549816 16.0847397,16.4244929 C16.2015992,16.5031096 16.396365,16.4638012 16.4742714,16.3851845 L17.4870538,15.0093914 C17.993445,14.3018407 18.9672743,14.1446072 19.7073846,14.6163077 L23.2521232,16.8961933 C23.9922334,17.3678938 24.2259525,18.3112948 23.7585144,19.0581538 L21.8108558,22.2028237 C21.8108558,22.2028237 21.8108558,22.2028237 21.8108558,22.2028237 C21.7329495,22.3600572 21.61609,22.4779823 21.4992305,22.556599 C20.7591202,23.2248414 19.7852909,23.5 18.655649,23.5 Z M5.45052388,1.84108646 C5.41157071,1.84108646 5.37261754,1.84108646 5.2947112,1.88039483 L2.02264481,3.72788836 C1.98369164,3.76719674 1.98369164,3.76719674 1.94473847,3.76719674 C0.30870527,5.53607352 2.17845749,10.9213206 7.63190148,16.1493342 C13.0853455,21.3773479 18.7335553,23.185533 20.6033075,21.5738897 C20.6033075,21.5738897 20.6033075,21.5738897 20.6422607,21.5345813 L22.5899193,18.3899115 C22.6288724,18.3112948 22.6288724,18.1933696 22.5120129,18.1147529 L18.9672743,15.8348673 C18.8504148,15.7562505 18.655649,15.7955589 18.5777426,15.8741756 L17.5649602,17.2499687 C17.0585689,17.918211 16.1236928,18.1147529 15.3835826,17.6823608 C10.3586235,14.6556161 7.24236976,10.4496202 6.15168097,8.75936011 C5.91796194,8.40558475 5.8400556,8.01250102 5.91796194,7.58010892 C5.99586828,7.18702519 6.22958731,6.79394146 6.58016585,6.5973996 L8.02143319,5.61469027 C8.09933953,5.5753819 8.09933953,5.53607352 8.09933953,5.49676515 C8.09933953,5.45745678 8.09933953,5.4181484 8.06038636,5.33953166 L5.68424291,1.9197032 C5.64528974,1.88039483 5.52843023,1.84108646 5.45052388,1.84108646 Z" id="Shape" fill="#45525B" fill-rule="nonzero"></path>
    </g>
</svg>