<?xml version="1.0" encoding="utf-8"?>
<!-- Generator: Adobe Illustrator 25.3.1, SVG Export Plug-In . SVG Version: 6.00 Build 0)  -->
<svg version="1.1" id="Layer_1" xmlns="http://www.w3.org/2000/svg" xmlns:xlink="http://www.w3.org/1999/xlink" x="0px" y="0px"
	 viewBox="0 0 38.5 24" style="enable-background:new 0 0 38.5 24;" xml:space="preserve">
<style type="text/css">
	.st0{fill:#22283A;stroke:#22283A;stroke-width:0.5;stroke-miterlimit:10;}
	.st1{fill:#22283A;}
	.st2{fill:#FFFFFF;}
	.st3{fill:#22283A;stroke:#22283A;stroke-width:0.25;stroke-miterlimit:10;}
</style>
<path class="st0" d="M37.9,10l-2-4.3c-0.7-1.5-2.2-2.5-3.9-2.5h-28C2,3.2,0.3,4.8,0.3,6.9v9.4c0,1.1,0.9,2.1,2.1,2.1h3.1
	c0.3,1.5,1.6,2.5,3.1,2.5s2.8-1.1,3.1-2.5h15.3c0.3,1.5,1.6,2.5,3.1,2.5s2.8-1.1,3.1-2.5h3.4c0.8,0,1.5-0.5,1.7-1.3
	c0-0.2,0.1-0.3,0.1-0.5v-5.3C38.2,10.8,38.1,10.4,37.9,10z M3.5,10.7c-0.3,0-0.6-0.3-0.6-0.6V5.1c0-0.3,0.3-0.6,0.6-0.6h4.4
	c0.3,0,0.6,0.3,0.6,0.6v5.1c0,0.3-0.3,0.6-0.6,0.6H3.5z M8.5,19.6c-1,0-1.9-0.8-1.9-1.9c0-1,0.8-1.9,1.9-1.9s1.9,0.8,1.9,1.9
	C10.4,18.7,9.6,19.6,8.5,19.6z M15.5,10.1c0,0.3-0.3,0.6-0.6,0.6h-4.4c-0.3,0-0.6-0.3-0.6-0.6V5.1c0-0.3,0.3-0.6,0.6-0.6h4.4
	c0.3,0,0.6,0.3,0.6,0.6V10.1z M22.4,10.1c0,0.3-0.3,0.6-0.6,0.6h-4.4c-0.3,0-0.6-0.3-0.6-0.6V5.1c0-0.3,0.3-0.6,0.6-0.6h4.4
	c0.3,0,0.6,0.3,0.6,0.6V10.1z M24.3,10.7c-0.3,0-0.6-0.3-0.6-0.6V5.1c0-0.3,0.3-0.6,0.6-0.6h4.4c0.3,0,0.6,0.3,0.6,0.6v5.1
	c0,0.3-0.3,0.6-0.6,0.6H24.3z M30,19.6c-1,0-1.9-0.8-1.9-1.9c0-1,0.8-1.9,1.9-1.9s1.9,0.8,1.9,1.9C31.9,18.7,31,19.6,30,19.6z
	 M31.2,10.7c-0.3,0-0.6-0.3-0.6-0.6V5c0-0.3,0.3-0.6,0.6-0.6h0.8c1.2,0,2.3,0.7,2.8,1.8l2,4.3c0.1,0.2,0.2,0.5,0.2,0.7L31.2,10.7z"
	/>
</svg>
