<?xml version="1.0" encoding="utf-8"?>
<!-- Generator: Adobe Illustrator 26.0.1, SVG Export Plug-In . SVG Version: 6.00 Build 0)  -->
<svg version="1.1" id="Layer_1" xmlns="http://www.w3.org/2000/svg" xmlns:xlink="http://www.w3.org/1999/xlink" x="0px" y="0px"
	 viewBox="0 0 24 20" style="enable-background:new 0 0 24 20;" xml:space="preserve">
<style type="text/css">
	.st0{fill:#070C1A;}
</style>
<g>
	<path class="st0" d="M22.2,17.6h0.8c0.2,0,0.4-0.2,0.4-0.4v-3.1v-0.4v-1.7c0-0.4-0.1-0.8-0.3-1.1c-0.2-0.4-0.4-0.7-0.7-0.9
		c-0.3-0.3-0.6-0.5-0.9-0.7c-0.2-0.1-0.5-0.2-0.7-0.2V4.5c0-0.7-0.3-1.2-0.7-1.6c-0.5-0.5-1-0.7-1.6-0.7H5.6C4.9,2.3,4.4,2.6,4,2.9
		C3.5,3.3,3.2,3.9,3.2,4.5v4.6C3,9.2,2.8,9.2,2.6,9.3C2.2,9.5,1.9,9.7,1.6,10c-0.3,0.3-0.5,0.6-0.7,0.9s-0.3,0.8-0.3,1.2v1.7v0.4
		v3.1c0,0.2,0.2,0.4,0.4,0.4 M3.9,4.5c0-0.9,0.8-1.6,1.6-1.6h12.9c0.9,0,1.6,0.8,1.6,1.6v4.6h-1.6V6.5c0-0.8-0.7-1.4-1.4-1.4h-2.8
		c-0.8,0-1.4,0.7-1.4,1.4v2.6h-1.7V6.5c0-0.8-0.7-1.4-1.4-1.4H6.8c-0.8,0-1.4,0.7-1.4,1.4v2.6H3.9V4.5z M17.8,9.2h-4.3V6.5
		c0-0.4,0.4-0.8,0.8-0.8h2.8c0.4,0,0.8,0.4,0.8,0.8V9.2z M10.5,9.2H6.2V6.5c0-0.4,0.4-0.8,0.8-0.8h2.8c0.4,0,0.8,0.4,0.8,0.8
		C10.5,6.5,10.5,9.2,10.5,9.2z M1.4,12.2c0-0.7,0.3-1.2,0.7-1.7c0.5-0.5,1-0.7,1.7-0.7h1.8h5.7h1.7h5.7h1.8c0.7,0,1.2,0.3,1.7,0.7
		c0.5,0.5,0.7,1,0.7,1.7v1.3H1.4V12.2z M1.4,17v-2.8h21.3V17H22"/>
</g>
</svg>
