<?xml version="1.0" encoding="utf-8"?>
<!-- Generator: Adobe Illustrator 25.4.1, SVG Export Plug-In . SVG Version: 6.00 Build 0)  -->
<svg version="1.1" id="Layer_1" xmlns="http://www.w3.org/2000/svg" xmlns:xlink="http://www.w3.org/1999/xlink" x="0px" y="0px"
	 viewBox="0 0 24 24" style="enable-background:new 0 0 24 24;" xml:space="preserve">
<style type="text/css">
	.st0{fill:#070C1A;}
</style>
<path class="st0" d="M12,15.1c2.8,0,5.6,0.3,8.4,1c-1.7,2.8-4.5,4.2-8.4,4.2S5.4,19,3.6,16.2C6.4,15.5,9.2,15.1,12,15.1z M12,16.2
	c-2.2,0-4.4,0.2-6.6,0.7c1.5,1.7,3.7,2.5,6.6,2.5c2.8,0,4.9-0.8,6.4-2.3l0.1-0.1L18,16.9C16,16.4,14,16.2,12,16.2z M12,3.6
	c4.2,0,10.5,4.7,10.5,6.3c0,1-0.7,2.8-2.1,5.2c-2.8-0.7-5.6-1-8.4-1s-5.6,0.3-8.4,1c-1.4-1.7-2.1-3.5-2.1-5.2
	C1.5,7.3,7.8,3.6,12,3.6z M12,4.7C8.3,4.7,2.6,8,2.6,9.9C2.6,11.2,3,12.6,4,14c2.7-0.6,5.3-0.9,8-0.9c2.6,0,5.2,0.3,7.9,0.9l0.2-0.4
	c0.9-1.6,1.3-2.8,1.4-3.5V10l0,0c0,0-0.1-0.1-0.1-0.2C21.2,9.5,21,9.3,20.7,9c-0.6-0.6-1.5-1.3-2.5-2C16,5.6,13.7,4.7,12,4.7z
	 M12,6.2c0.3,0,0.5,0.2,0.5,0.5v0.1v0.5H13c0.3,0,0.5,0.2,0.5,0.5v0.1c0,0.3-0.2,0.5-0.5,0.5h-0.1h-0.5v2.1c0.6,0,1-0.4,1-1V9.4V9.3
	c0-0.3,0.3-0.5,0.5-0.5c0.3,0,0.5,0.2,0.5,0.5c0,1.1-0.9,2-2,2.1h-0.1h-1c-1.2,0-2.1-0.9-2.1-2.1V9.2c0-0.3,0.3-0.5,0.5-0.5
	c0.3,0,0.5,0.2,0.5,0.5v0.1c0,0.6,0.5,1,1,1v-2H11h-0.1c-0.3,0-0.5-0.3-0.5-0.5c0-0.3,0.2-0.5,0.5-0.5H11h0.5V6.8V6.7
	C11.5,6.4,11.7,6.2,12,6.2z"/>
</svg>
