<?xml version="1.0" encoding="utf-8"?>
<!-- Generator: Adobe Illustrator 25.4.1, SVG Export Plug-In . SVG Version: 6.00 Build 0)  -->
<svg version="1.1" id="Layer_1" xmlns="http://www.w3.org/2000/svg" xmlns:xlink="http://www.w3.org/1999/xlink" x="0px" y="0px"
	 viewBox="0 0 24 20" style="enable-background:new 0 0 24 20;" xml:space="preserve">
<style type="text/css">
	.st0{opacity:0.8;}
	.st1{fill:none;stroke:#070C1A;stroke-width:1.4;stroke-linejoin:round;}
	.st2{fill:none;stroke:#070C1A;stroke-width:1.4;stroke-linecap:round;stroke-linejoin:round;}
</style>
<g id="Group_327" transform="translate(0.7 0.7)" class="st0">
	<circle id="Ellipse_73" class="st1" cx="16.5" cy="6.4" r="3.1"/>
	<path id="Path_72" class="st2" d="M14.5,11.1c0.6-0.3,1.3-0.4,2-0.4c2.8,0,5.1,2.3,5.1,5.1l0,0c0,0.5-0.4,0.9-0.9,0.9H16"/>
	<path id="Path_73" class="st1" d="M14.3,15.6c0,0.6-0.5,1-1,1H2.1c-0.6,0-1-0.5-1-1c0-1.6,0.7-3.1,1.9-4.1c1-1,2.6-1.6,4.2-1.7h1
		c1.8,0,3.4,0.8,4.6,2.1C13.8,12.9,14.3,14.2,14.3,15.6z"/>
	<path id="Path_74" class="st1" d="M11.1,5.3c0,1.9-1.5,3.4-3.4,3.4S4.2,7.2,4.2,5.3s1.5-3.4,3.4-3.4C9.5,1.9,11.1,3.5,11.1,5.3
		L11.1,5.3z"/>
</g>
</svg>
