<?xml version="1.0" encoding="utf-8"?>
<!-- Generator: Adobe Illustrator 25.3.1, SVG Export Plug-In . SVG Version: 6.00 Build 0)  -->
<svg version="1.1" id="Layer_1" xmlns="http://www.w3.org/2000/svg" xmlns:xlink="http://www.w3.org/1999/xlink" x="0px" y="0px"
	 viewBox="0 0 24 24" style="enable-background:new 0 0 24 24;" xml:space="preserve">
<g>
	<path d="M22.4,9.61c1.6-0.4,1.6-1.6,1.6-1.6h-3.99c-2.4-2.4-4.8-3.2-8-3.2s-5.6,0.8-8,3.2H0.01c0,0,0,1.2,1.6,1.6
		c-0.3,0.41-0.63,0.93-0.91,1.51C0.3,11.93,0,12.84,0,13.6c0,3.3,2.29,5.6,5.6,5.6c1.87,0,3.7-1.06,4.8-2.4l1.6,2.4l1.6-2.4
		c1.09,1.35,2.93,2.4,4.8,2.4c3.3,0,5.6-2.29,5.6-5.6c0-0.73-0.28-1.59-0.64-2.38C23.07,10.62,22.71,10.05,22.4,9.61z M5.61,17.61
		c-2.21,0-3.99-1.78-3.99-3.99c0-1.18,0.52-2.25,1.34-2.97C3.64,10,4.58,9.61,5.61,9.61c0.62,0,1.21,0.15,1.74,0.4
		c1.34,0.64,2.26,2.02,2.26,3.59C9.6,15.81,7.82,17.61,5.61,17.61z M12.01,16.01c0-2.31-1.06-4.6-2.57-6.14
		C8.32,8.73,6.97,8.01,5.61,8.01c0,0,2.4-2.4,6.4-2.4s6.4,2.4,6.4,2.4c-1.36,0-2.73,0.73-3.85,1.87
		C13.06,11.43,12.01,13.71,12.01,16.01z M18.4,17.61c-2.21,0-3.99-1.78-3.99-3.99c0-1.55,0.89-2.9,2.19-3.57
		c0.55-0.28,1.15-0.44,1.81-0.44c1.08,0,2.05,0.42,2.78,1.13c0.75,0.73,1.23,1.75,1.23,2.88C22.4,15.81,20.61,17.61,18.4,17.61z"/>
	<path id="XMLID_83_" d="M18.4,12.81c-0.44,0-0.8,0.36-0.8,0.8c0,0.44,0.36,0.8,0.8,0.8s0.8-0.35,0.8-0.8
		C19.2,13.17,18.84,12.81,18.4,12.81z"/>
	<path d="M18.4,11.21c-1.32,0-2.4,1.08-2.4,2.4s1.08,2.4,2.4,2.4c1.32,0,2.4-1.07,2.4-2.4S19.73,11.21,18.4,11.21z M18.4,15.2
		c-0.89,0-1.6-0.72-1.6-1.6c0-0.89,0.72-1.6,1.6-1.6c0.89,0,1.6,0.72,1.6,1.6C20.01,14.49,19.29,15.2,18.4,15.2z"/>
	<path id="XMLID_80_" d="M5.61,12.81c-0.44,0-0.8,0.36-0.8,0.8c0,0.44,0.35,0.8,0.8,0.8c0.44,0,0.8-0.35,0.8-0.8
		C6.41,13.17,6.05,12.81,5.61,12.81z"/>
	<path d="M5.61,11.21c-1.32,0-2.4,1.08-2.4,2.4s1.08,2.4,2.4,2.4s2.4-1.07,2.4-2.4S6.93,11.21,5.61,11.21z M5.61,15.2
		c-0.89,0-1.6-0.72-1.6-1.6c0-0.89,0.72-1.6,1.6-1.6s1.6,0.72,1.6,1.6S6.49,15.2,5.61,15.2z"/>
</g>
</svg>
