<?xml version="1.0" encoding="utf-8"?>
<!-- Generator: Adobe Illustrator 25.3.1, SVG Export Plug-In . SVG Version: 6.00 Build 0)  -->
<svg version="1.1" id="Layer_1" xmlns="http://www.w3.org/2000/svg" xmlns:xlink="http://www.w3.org/1999/xlink" x="0px" y="0px"
	 viewBox="0 0 24 24" style="enable-background:new 0 0 24 24;" xml:space="preserve">
<style type="text/css">
	.st0{fill-rule:evenodd;clip-rule:evenodd;}
</style>
<div  id="divScriptsUsed" style="display: none" xmlns=""></div>
<script  id="globalVarsDetection" src="chrome-extension://cmkdbmfndkfgebldhnkbfhlneefdaaip/js/wrs_env.js" xmlns=""></script>
<g>
	<path d="M1.7,22.3l1.5-5.5c-0.8-1.5-1.3-3.2-1.3-4.9c0-5.6,4.6-10.2,10.2-10.2c5.6,0,10.2,4.6,10.2,10.2c0,5.6-4.6,10.2-10.2,10.2
		c-1.7,0-3.3-0.4-4.8-1.2L1.7,22.3z M7.5,18.7L7.9,19c1.3,0.8,2.7,1.2,4.2,1.2c4.5,0,8.2-3.7,8.2-8.2c0-4.5-3.7-8.2-8.2-8.2
		c-4.5,0-8.2,3.7-8.2,8.2c0,1.5,0.4,3,1.2,4.3l0.2,0.4l-0.8,3.1L7.5,18.7z"/>
	<path class="st0" d="M15.8,13.5c-0.4-0.3-1-0.5-1.5-0.3c-0.4,0.2-0.6,0.7-0.9,1c-0.1,0.2-0.3,0.2-0.5,0.1c-1.4-0.6-2.5-1.5-3.3-2.8
		c-0.1-0.2-0.1-0.4,0.1-0.6c0.2-0.3,0.5-0.6,0.6-1c0.1-0.4-0.1-0.8-0.3-1.1c-0.2-0.4-0.4-1-0.8-1.3C8.8,7.3,8.3,7.4,8,7.7
		C7.4,8.2,7.1,9,7.1,9.7c0,0.2,0,0.4,0.1,0.6c0.1,0.5,0.4,1,0.6,1.4c0.2,0.3,0.4,0.7,0.6,1c0.8,1,1.7,1.9,2.8,2.6
		c0.5,0.3,1.1,0.6,1.7,0.8c0.7,0.2,1.3,0.5,2,0.3c0.8-0.1,1.5-0.6,1.8-1.4c0.1-0.2,0.1-0.5,0.1-0.7C16.8,14,16.2,13.7,15.8,13.5z"/>
</g>
</svg>
